# AST/ASF file generated using VICON BodyLanguage
# -----------------------------------------------
:version 1.10
:name VICON
:units
  mass 1.0
  length 0.45
  angle deg
:documentation
   .ast/.asf automatically generated from VICON data using
   VICON BodyBuilder and BodyLanguage model FoxedUp or BRILLIANT.MOD
:root
   order TX TY TZ RX RY RZ
   axis XYZ
   position 0 0 0  
   orientation 0 0 0 
:bonedata
  begin
     id 1 
     name lhipjoint
     direction 0.558404 -0.748506 0.357664 
     length 2.4234 
     axis 0 0 0  XYZ
  end
  begin
     id 2 
     name lfemur
     direction 0.34202 -0.939693 0  
     length 7.14567  
     axis 0 0 20  XYZ
    dof rx ry rz
    limits (-160.0 20.0)
           (-70.0 70.0)
           (-60.0 70.0)
  end
  begin
     id 3 
     name ltibia
     direction 0.34202 -0.939693 0   
     length 8.13956   
     axis 0 0 20   XYZ
    dof rx
    limits (-10.0 170.0)
  end
  begin
     id 4 
     name lfoot
     direction 0.0791314 -0.217412 0.972867   
     length 2.00134   
     axis -90 7.62852e-016 20   XYZ
    dof rx rz
    limits (-45.0 90.0)
           (-70.0 20.0)
  end
  begin
     id 5 
     name ltoes
     direction 1.53547e-011 -4.21922e-011 1   
     length 1.00735   
     axis -90 7.62852e-016 20   XYZ
    dof rx
    limits (-90.0 20.0)
  end
  begin
     id 6 
     name rhipjoint
     direction -0.496392 -0.78327 0.374276   
     length 2.31584  
     axis 0 0 0  XYZ 
  end
  begin
     id 7 
     name rfemur
     direction -0.34202 -0.939693 0   
     length 7.47417   
     axis 0 0 -20   XYZ
    dof rx ry rz
    limits (-160.0 20.0)
           (-70.0 70.0)
           (-70.0 60.0)
  end
  begin
     id 8 
     name rtibia
     direction -0.34202 -0.939693 0   
     length 7.69071   
     axis 0 0 -20   XYZ
    dof rx
    limits (-10.0 170.0)
 end
 begin
     id 9 
     name rfoot
     direction -0.103069 -0.28318 0.953512   
     length 2.16135  
     axis -90 -7.62852e-016 -20   XYZ
    dof rx rz
    limits (-45.0 90.0)
           (-20.0 70.0)
  end
  begin
     id 10 
     name rtoes
     direction -1.53581e-011 -4.21904e-011 1   
     length 1.07867   
     axis -90 -7.62852e-016 -20   XYZ
    dof rx
    limits (-90.0 20.0)
  end
  begin
     id 11 
     name lowerback
     direction -0.0258961 0.994776 -0.0987407   
     length 2.19412   
     axis 0 0 0   XYZ
    dof rx ry rz
    limits (-20.0 45.0)
           (-30.0 30.0)
           (-30.0 30.0)
  end
  begin
     id 12 
     name upperback
     direction 0.0402454 0.999185 0.00320666   
     length 2.18445   
     axis 0 0 0   XYZ
    dof rx ry rz
    limits (-20.0 45.0)
           (-30.0 30.0)
           (-30.0 30.0)
  end
  begin
     id 13 
     name thorax
     direction 0.0519376 0.997415 0.0496558   
     length 2.21487   
     axis 0 0 0   XYZ
    dof rx ry rz
    limits (-20.0 45.0)
           (-30.0 30.0)
           (-30.0 30.0)
  end
  begin
     id 14 
     name lowerneck
     direction -0.0921276 0.983211 0.157506   
     length 1.61201   
     axis 0 0 0   XYZ
    dof rx ry rz
    limits (-20.0 45.0)
           (-30.0 30.0)
           (-30.0 30.0)
  end
  begin
     id 15 
     name upperneck
     direction 0.0820814 0.98162 -0.172292   
     length 1.65275   
     axis 0 0 0   XYZ
    dof rx ry rz
    limits (-20.0 45.0)
           (-30.0 30.0)
           (-30.0 30.0)
  end
  begin
     id 16
     name head
     direction 0.0336554 0.996413 -0.0776455  
     length 1.66415  
     axis 0 0 0   XYZ
    dof rx ry rz
    limits (-20.0 45.0)
           (-30.0 30.0)
           (-30.0 30.0)
  end
  begin
     id 17 
     name lclavicle
     direction 0.94696 0.284418 -0.149576  
     length 3.41447  
     axis 0 0 0   XYZ
    dof ry rz
    limits (-20.0 10.0)
           (0.0 20.0)
  end
  begin
     id 18 
     name lhumerus
     direction 1 -0.000130264 -9.81312e-005   
     length 5.19964   
     axis 180 -30 -90   XYZ
    dof rx ry rz
    limits (-60.0 90.0)
           (-90.0 90.0)
           (-90.0 90.0)
  end
  begin
     id 19
     name lradius
     direction 1 -4.48961e-011 1.43854e-026   
     length 3.32189   
     axis 180 -30 -90   XYZ
    dof rx
    limits (-10.0 170.0)
  end
  begin
     id 20
     name lwrist
     direction 1 -4.48958e-011 3.1502e-026   
     length 1.66095   
     axis -1.97692e-014 90 90   XYZ
    dof ry
    limits (-180.0 0.0)
 end
  begin
     id 21 
     name lhand
     direction 1 -4.48927e-011 6.3004e-026   
     length 0.645616   
     axis -4.02019e-014 90 90   XYZ
    dof rx rz
    limits (-90.0 90.0)
           (-45.0 45.0)
  end
  begin
     id 22 
     name lfingers
     direction 1 -4.4904e-011 1.26008e-025   
     length 0.520512   
     axis -8.04039e-014 90 90   XYZ
    dof rx
    limits (0.0 90.0)
  end
  begin
     id 23
     name lthumb
     direction 0.707107 -6.34947e-011 0.707107   
     length 0.747354   
     axis -90 45 2.85299e-015   XYZ
    dof rx rz
    limits (-45.0 45.0)
           (-45.0 45.0)
  end
  begin
     id 24 
     name rclavicle
     direction -0.909391 0.383475 -0.161107   
     length 3.25176  
     axis 0 0 0   XYZ 
    dof ry rz
    limits (-10.0 20.0)
           (-20.0 0.0)
  end
  begin
     id 25 
     name rhumerus
     direction -1 -4.48965e-011 -1.81384e-027  
     length 5.6595   
     axis 180 30 90   XYZ
    dof rx ry rz
    limits (-90.0 60.0)
           (-90.0 90.0)
           (-90.0 90.0)
  end
  begin
     id 26 
     name rradius
     direction -1 -4.48996e-011 -8.09397e-027   
     length 3.37604   
     axis 180 30 90   XYZ
    dof rx
    limits (-10.0 170.0)
  end
  begin
     id 27 
     name rwrist
     direction -1 -4.48927e-011 -1.56669e-026   
     length 1.68802   
     axis 1.21142e-014 -90 -90   XYZ
    dof ry
    limits (-180.0 0.0)
  end
  begin
     id 28
     name rhand
     direction -1 -4.48912e-011 -3.13339e-026   
     length 0.824702   
     axis 1.99937e-014 -90 -90   XYZ
    dof rx rz
    limits (-90.0 90.0)
           (-45.0 45.0)
  end
  begin
     id 29
     name rfingers
     direction -1 -4.49011e-011 -6.26677e-026   
     length 0.664896   
     axis 3.99874e-014 -90 -90   XYZ
    dof rx
    limits (0.0 90.0)
  end
  begin
     id 30
     name rthumb
     direction -0.707107 -6.34931e-011 0.707107   
     length 0.954662   
     axis -90 -45 -2.85299e-015   XYZ
    dof rx rz
    limits (-45.0 45.0)
           (-45.0 45.0)
  end
:hierarchy
  begin
    root lhipjoint rhipjoint lowerback
    lhipjoint lfemur
    lfemur ltibia
    ltibia lfoot
    lfoot ltoes
    rhipjoint rfemur
    rfemur rtibia
    rtibia rfoot
    rfoot rtoes
    lowerback upperback
    upperback thorax
    thorax lowerneck lclavicle rclavicle
    lowerneck upperneck
    upperneck head
    lclavicle lhumerus
    lhumerus lradius
    lradius lwrist
    lwrist lhand lthumb
    lhand lfingers
    rclavicle rhumerus
    rhumerus rradius
    rradius rwrist
    rwrist rhand rthumb
    rhand rfingers
  end

#!OML:ASF F:\VICON\USERDATA\INSTALL\rory3\rory3.ASF
:FULLY-SPECIFIED
:DEGREES
1
root 11.8616 17.8214 -38.4744 7.01194 -18.4281 -0.411305
lowerback 2.19425 -1.62706 -5.44671
upperback -4.26916 -2.28993 3.78292
thorax -5.3276 -0.828339 7.20087
lowerneck -5.22495 -10.4481 -19.5721
upperneck 13.2302 -14.0463 12.3195
head 7.17745 -7.0434 5.82898
rclavicle 5.37464e-014 -8.74653e-015
rhumerus -36.734 -13.7238 -74.1951
rradius 29.6924
rwrist -12.1916
rhand -12.7821 17.9262
rfingers 7.12502
rthumb 13.3033 -11.6292
lclavicle 5.37464e-014 -8.74653e-015
lhumerus -33.3596 10.7662 88.7513
lradius 25.0768
lwrist -9.91623
lhand -3.31803 32.8788
lfingers 7.12502
lthumb 22.4087 61.599
rfemur -17.5006 3.51161 23.8673
rtibia 40.1301
rfoot -25.7245 -12.4239
rtoes 18.5047
lfemur -16.2588 -4.57143 -20.256
ltibia 37.9039
lfoot -24.4489 10.7888
ltoes 5.31509
2
root 11.8595 17.8242 -38.4774 7.065 -18.324 -0.376108
lowerback 2.18828 -1.64083 -5.49362
upperback -4.29192 -2.31094 3.77712
thorax -5.34379 -0.835656 7.22339
lowerneck -5.28736 -10.4506 -19.5772
upperneck 13.2417 -14.0566 12.4278
head 7.20213 -7.03981 5.86196
rclavicle 4.3919e-014 1.35174e-014
rhumerus -36.7278 -13.8969 -74.1355
rradius 29.5972
rwrist -11.9844
rhand -12.83 18.0386
rfingers 7.12502
rthumb 13.2571 -11.5198
lclavicle 4.3919e-014 1.35174e-014
lhumerus -33.3673 10.7938 88.7322
lradius 25.0904
lwrist -10.0284
lhand -3.3546 32.7172
lfingers 7.12502
lthumb 22.3736 61.4416
rfemur -17.5847 3.53005 23.8388
rtibia 40.1885
rfoot -25.8907 -12.4295
rtoes 19.0528
lfemur -16.317 -4.67577 -20.2629
ltibia 37.8743
lfoot -23.4998 12.1508
ltoes -5.87351
3
root 11.857 17.8231 -38.484 7.10731 -18.2452 -0.428735
lowerback 2.22641 -1.65894 -5.4666
upperback -4.2909 -2.33473 3.79569
thorax -5.36077 -0.847576 7.2308
lowerneck -5.46423 -10.4475 -19.612
upperneck 13.1587 -14.0422 12.6405
head 7.22226 -7.01364 5.93273
rclavicle 1.02001e-014 -6.36111e-015
rhumerus -36.6848 -13.9951 -74.1432
rradius 29.5514
rwrist -11.9058
rhand -12.8802 18.0074
rfingers 7.12502
rthumb 13.2087 -11.5542
lclavicle 1.02001e-014 -6.36111e-015
lhumerus -33.3184 10.7308 88.7347
lradius 25.0983
lwrist -9.91365
lhand -3.54727 32.7651
lfingers 7.12502
lthumb 22.1886 61.5116
rfemur -17.5983 3.53781 23.9309
rtibia 40.1255
rfoot -25.8632 -12.5621
rtoes 18.9962
lfemur -16.4074 -4.63924 -20.1665
ltibia 37.9568
lfoot -23.8944 11.5696
ltoes -2.48595
4
root 11.8552 17.8238 -38.4917 7.14797 -18.138 -0.508104
lowerback 2.27281 -1.68663 -5.39462
upperback -4.27082 -2.36897 3.82062
thorax -5.36159 -0.867682 7.21936
lowerneck -5.66382 -10.4813 -19.6033
upperneck 13.5025 -14.073 12.5781
head 7.36811 -7.02795 5.89634
rclavicle 3.34579e-014 3.89618e-014
rhumerus -36.605 -13.9616 -74.2284
rradius 29.5454
rwrist -11.9383
rhand -12.987 17.9742
rfingers 7.12502
rthumb 13.1058 -11.594
lclavicle 3.34579e-014 3.89618e-014
lhumerus -33.2996 10.7138 88.7309
lradius 25.1998
lwrist -9.74405
lhand -3.33157 33.5595
lfingers 7.12502
lthumb 22.3957 62.2812
rfemur -17.6047 3.52177 24.0457
rtibia 40.0685
rfoot -25.8543 -12.5207
rtoes 19.7934
lfemur -16.494 -4.60123 -20.0396
ltibia 38.0185
lfoot -24.2295 10.6724
ltoes 3.07356
5
root 11.855 17.8262 -38.4929 7.21476 -18.1513 -0.604838
lowerback 2.20928 -1.64511 -5.24188
upperback -4.2127 -2.30373 3.78818
thorax -5.27944 -0.84725 7.08774
lowerneck -5.94556 -10.5894 -19.4024
upperneck 13.6269 -14.1778 12.4335
head 7.4491 -7.06674 5.78778
rclavicle 6.56114e-014 1.66979e-014
rhumerus -36.5355 -14.1542 -74.2986
rradius 29.5202
rwrist -11.9052
rhand -13.0756 18.0168
rfingers 7.12502
rthumb 13.0203 -11.5569
lclavicle 6.56114e-014 1.66979e-014
lhumerus -33.1624 10.55 88.7181
lradius 25.1475
lwrist -9.74516
lhand -3.07003 34.1847
lfingers 7.12502
lthumb 22.6468 62.876
rfemur -17.6143 3.56264 24.1315
rtibia 40.0032
rfoot -25.8737 -12.4273
rtoes 20.8053
lfemur -16.5464 -4.58898 -19.9328
ltibia 38.0728
lfoot -23.7829 10.9563
ltoes 0.570024
6
root 11.8556 17.8246 -38.4872 7.18535 -18.3399 -0.670493
lowerback 2.10481 -1.55298 -5.09895
upperback -4.13684 -2.17017 3.74304
thorax -5.16571 -0.794031 6.9424
lowerneck -6.04132 -10.6368 -19.3517
upperneck 13.6765 -14.2325 12.4154
head 7.4859 -7.08804 5.76125
rclavicle 3.68373e-015 1.27222e-014
rhumerus -36.5499 -14.3387 -74.3247
rradius 29.5087
rwrist -11.8549
rhand -13.1523 18.0596
rfingers 7.12502
rthumb 12.9464 -11.5188
lclavicle 3.68373e-015 1.27222e-014
lhumerus -33.0718 10.3744 88.702
lradius 25.0873
lwrist -9.89059
lhand -2.8734 34.3035
lfingers 7.12502
lthumb 22.8355 62.9716
rfemur -17.5315 3.6533 24.1625
rtibia 39.96
rfoot -25.8816 -12.4204
rtoes 20.5463
lfemur -16.4436 -4.59697 -19.9174
ltibia 38.094
lfoot -23.5023 11.7258
ltoes -3.85044
7
root 11.8548 17.8227 -38.4853 7.13394 -18.3531 -0.625212
lowerback 2.18478 -1.55037 -5.12921
upperback -4.22615 -2.17054 3.77311
thorax -5.30452 -0.784468 6.99893
lowerneck -5.92746 -10.5748 -19.6112
upperneck 13.8442 -14.1684 12.4954
head 7.53599 -7.07234 5.84267
rclavicle 1.53685e-014 -2.62396e-014
rhumerus -36.7571 -14.1882 -74.2318
rradius 29.5465
rwrist -11.8821
rhand -13.1946 18.0335
rfingers 7.12502
rthumb 12.9056 -11.5475
lclavicle 1.53685e-014 -2.62396e-014
lhumerus -33.2999 10.4193 88.7096
lradius 25.1843
lwrist -9.97328
lhand -2.54443 34.5439
lfingers 7.12502
lthumb 23.1511 63.1728
rfemur -17.4775 3.65311 24.1126
rtibia 39.9382
rfoot -25.9728 -12.3808
rtoes 20.3906
lfemur -16.413 -4.65476 -19.983
ltibia 38.0901
lfoot -24.4845 10.719
ltoes 5.32865
